<svg aria-hidden="true" style="position: absolute; width: 0; height: 0; overflow: hidden;" version="1.1" xmlns="http://www.w3.org/2000/svg" xmlns:xlink="http://www.w3.org/1999/xlink">
<defs>
<symbol id="icon-twitter1" viewBox="0 0 32 32">
<path fill="#afb1b8" style="fill: var(--color1, #afb1b8)" d="M32 6.078c-1.1 0.493-2.376 0.857-3.713 1.028l-0.068 0.007c1.345-0.81 2.359-2.053 2.859-3.533l0.014-0.046 0.013-0.046c-1.173 0.713-2.538 1.259-3.993 1.559l-0.083 0.014-0.084 0.014c-1.2-1.279-2.9-2.076-4.787-2.076-3.622 0-6.558 2.936-6.558 6.558v0 0.004c0 0.52 0.043 1.021 0.152 1.496-5.454-0.266-10.28-2.88-13.522-6.861-0.567 0.947-0.902 2.089-0.902 3.31 0 0.001 0 0.002 0 0.003v0.001c0.003 2.262 1.149 4.256 2.891 5.436l0.023 0.015c-1.104-0.029-2.132-0.33-3.026-0.84l0.032 0.017 0.033 0.017v0.072c0.003 3.15 2.215 5.782 5.169 6.432l0.087 0.016c-0.494 0.137-1.060 0.215-1.645 0.215-0.006 0-0.012 0-0.018-0h-0.057c-0.419 0-0.843-0.024-1.242-0.112 0.85 2.598 3.261 4.509 6.13 4.57-2.204 1.745-5.025 2.8-8.092 2.8-0.011 0-0.021 0-0.032-0h-0.072c-0.531 0-1.055-0.034-1.569-0.099l0.061 0.006c2.826 1.846 6.287 2.944 10.004 2.944h0.060c12.072 0 18.672-10 18.672-18.669 0-0.288-0.010-0.57-0.024-0.848 1.283-0.927 2.364-2.039 3.229-3.309l0.029-0.046 0.030-0.047z"></path>
</symbol>
<symbol id="icon-smartphone1" viewBox="0 0 20 32">
<path fill="#757575" style="fill: var(--color2, #757575)" d="M17 0h-14c-1.654 0-3 1.346-3 3v26c0 1.654 1.346 3 3 3h14c1.654 0 3-1.346 3-3v-26c0-1.654-1.346-3-3-3zM3 2h14c0.552 0 1 0.448 1 1v0 21h-16v-21c0-0.552 0.448-1 1-1v0zM17 30h-14c-0.552 0-1-0.448-1-1v0-3h16v3c0 0.552-0.448 1-1 1v0z"></path>
<path fill="#757575" style="fill: var(--color2, #757575)" d="M4.708 27.478c0.18 0.163 0.293 0.398 0.293 0.66s-0.112 0.496-0.292 0.658l-0.001 0.001-0.001 0.001c-0.186 0.171-0.435 0.276-0.708 0.276s-0.523-0.105-0.709-0.276l0.001 0.001 0.001 0.001c-0.18-0.163-0.293-0.398-0.293-0.66s0.112-0.496 0.292-0.658l0.001-0.001 0.001-0.001c0.186-0.171 0.435-0.276 0.709-0.276s0.523 0.105 0.709 0.276l-0.001-0.001-0.001-0.001z"></path>
</symbol>
<symbol id="icon-linkedin1" viewBox="0 0 32 32">
<path fill="#afb1b8" style="fill: var(--color1, #afb1b8)" d="M31.992 32h0.008v-11.738c0-5.741-1.235-10.163-7.947-10.163-3.227 0-5.392 1.77-6.277 3.45h-0.093v-2.914h-6.365v21.363h6.627v-10.578c0-2.786 0.528-5.48 3.978-5.48 3.398 0 3.45 3.179 3.45 5.658v10.402h6.619zM0.528 10.635h6.635v21.365h-6.635v-21.365zM3.843 0c-2.122 0-3.843 1.721-3.843 3.843v0c0 2.12 1.722 3.878 3.843 3.878 2.12 0 3.842-1.757 3.842-3.878s-1.72-3.841-3.841-3.843z"></path>
</symbol>
<symbol id="icon-instagram1" viewBox="0 0 32 32">
<path fill="#fff" style="fill: var(--color3, #fff)" d="M31.968 9.408c-0.074-1.701-0.349-2.869-0.742-3.882-0.425-1.111-1.054-2.057-1.849-2.836l-0.001-0.001-0.001-0.001c-0.767-0.779-1.692-1.399-2.725-1.808l-0.053-0.019-0.054-0.018c-1.019-0.394-2.181-0.667-3.882-0.742-1.712-0.082-2.256-0.101-6.602-0.101-4.344 0-4.888 0.019-6.595 0.094-1.699 0.074-2.869 0.349-3.88 0.742-1.111 0.425-2.058 1.054-2.838 1.849l-0.001 0.001-0.001 0.001c-0.778 0.767-1.398 1.692-1.806 2.725l-0.019 0.053-0.018 0.054c-0.395 1.019-0.669 2.181-0.744 3.882-0.082 1.712-0.101 2.256-0.101 6.602 0 4.344 0.019 4.888 0.094 6.595 0.075 1.701 0.35 2.869 0.744 3.882 0.427 1.11 1.056 2.056 1.848 2.836l0.001 0.001 0.001 0.001c0.8 0.813 1.77 1.443 2.832 1.843 1.019 0.395 2.182 0.67 3.882 0.744 1.707 0.075 2.251 0.094 6.595 0.094 4.346 0 4.89-0.019 6.595-0.094 1.701-0.074 2.869-0.349 3.882-0.742 2.137-0.848 3.8-2.5 4.644-4.573l0.020-0.055 0.019-0.055c0.394-1.019 0.669-2.182 0.744-3.882 0.075-1.707 0.093-2.251 0.093-6.595s-0.006-4.888-0.080-6.595zM29.088 22.474c-0.070 1.563-0.333 2.406-0.55 2.97-0.55 1.386-1.623 2.465-2.968 3.011l-0.036 0.013-0.036 0.012c-0.56 0.219-1.411 0.482-2.968 0.55-1.688 0.075-2.194 0.094-6.464 0.094-4.269 0-4.782-0.019-6.464-0.094-1.563-0.069-2.406-0.331-2.97-0.55-0.72-0.27-1.333-0.676-1.835-1.191l-0.001-0.001-0.001-0.001c-0.509-0.495-0.912-1.097-1.172-1.769l-0.012-0.034-0.011-0.034c-0.218-0.563-0.48-1.413-0.549-2.97-0.075-1.688-0.094-2.195-0.094-6.464 0-4.27 0.019-4.784 0.094-6.464 0.069-1.563 0.331-2.406 0.549-2.97 0.269-0.721 0.678-1.335 1.197-1.836l0.001-0.001 0.002-0.002c0.496-0.509 1.099-0.911 1.772-1.17l0.034-0.012 0.034-0.011c0.56-0.219 1.411-0.48 2.968-0.55 1.688-0.074 2.195-0.093 6.464-0.093 4.275 0 4.782 0.019 6.464 0.093 1.563 0.069 2.406 0.331 2.97 0.55 0.721 0.269 1.335 0.676 1.836 1.193l0.001 0.001c0.531 0.52 0.938 1.144 1.195 1.84 0.218 0.56 0.48 1.411 0.549 2.968 0.075 1.688 0.094 2.194 0.094 6.464 0 4.269-0.019 4.768-0.094 6.458z"></path>
<path fill="#fff" style="fill: var(--color3, #fff)" d="M16.059 7.782c-4.539 0.002-8.218 3.682-8.219 8.221v0c0.099 4.465 3.742 8.046 8.221 8.046 4.476 0 8.117-3.577 8.221-8.028l0-0.010v-0.009c-0.001-4.54-3.681-8.22-8.221-8.221h-0zM16.059 21.334c-2.945-0-5.332-2.388-5.332-5.333s2.388-5.333 5.333-5.333c0 0 0 0 0.001 0h0.001c2.946 0 5.334 2.388 5.334 5.334s-2.388 5.334-5.334 5.334v0zM26.525 7.458c0 1.060-0.86 1.92-1.92 1.92s-1.92-0.86-1.92-1.92v0c0-1.060 0.86-1.92 1.92-1.92s1.92 0.86 1.92 1.92v0z"></path>
</symbol>
<symbol id="icon-faceboo1k" viewBox="0 0 32 32">
<path fill="#afb1b8" style="fill: var(--color1, #afb1b8)" d="M21.328 5.312h2.923v-5.088c-1.211-0.143-2.615-0.224-4.037-0.224-0.025 0-0.049 0-0.074 0h-0.145c-4.213 0-7.099 2.65-7.099 7.52v4.48h-4.646v5.688h4.646v14.312h5.699v-14.31h4.459l0.709-5.688h-5.17v-3.922c0-1.643 0.443-2.768 2.734-2.768z"></path>
</symbol>
<symbol id="icon-envelope1" viewBox="0 0 43 32">
<path fill="#757575" style="fill: var(--color2, #757575)" d="M38.667 0h-34.667c-2.205 0-4 1.795-4 4v24c0 2.205 1.795 4 4 4h34.667c2.205 0 4-1.795 4-4v-24c0-2.205-1.795-4-4-4zM38.667 2.667c0.181 0 0.355 0.037 0.512 0.104l-17.845 15.467-17.845-15.467c0.151-0.065 0.327-0.104 0.512-0.104h34.667zM38.667 29.333h-34.667c-0.736 0-1.333-0.597-1.333-1.333v0-22.413l17.792 15.421c0.233 0.203 0.539 0.327 0.875 0.327s0.642-0.124 0.876-0.328l-0.002 0.001 17.792-15.421v22.413c0 0.736-0.597 1.333-1.333 1.333z"></path>
</symbol>
</defs>
</svg>
